<?xml version="1.0" encoding="UTF-8"?>
<svg id="b" data-name="Ebene 2" xmlns="http://www.w3.org/2000/svg" viewBox="0 0 209.83 106.5">
  <g id="c" data-name="Ebene 1">
    <g>
      <path d="M155.8,30.05c.41.25.78,2.53.85,3.25.75,7.66-1.9,16.98-8.3,21.69-2.16,1.59-5.41,3.78-7.09.43-2.09-4.18,3.07-5.52,5.27-8.23,4.99-6.14,1.82-11.84,3.73-15.75.74-1.52,4.35-2.12,5.52-1.39Z" style="fill: #ad8193;"/>
      <g>
        <path d="M110.42.05c1.86-.38,3.58,1.32,3.71,3.09.16,3.63-1.37,7.49-2.3,11.23-4.05,16.41-19.28,25.2-33.06,32.64-17.77,9.77-36.23,19.14-56.62,21.63-3.07.38-6.72.92-9.51,2.02-2.21.86-3.87,2.08-4.27,3.83-.59,2.63,1.49,6.11,4.29,6.47,4.13.22,7.46-6.13,12.18-5.81,2.73-.27,5.56,2.27,3.68,4.89-.84,1.23-2.57,1.89-4.01,2.86-2.88,1.69-3.29,5.32.49,5.85,4.41.46,6.13-4.63,10.74-6.57,2-.86,4.84-1.26,6.61.17.98.79,1.11,2.17.33,3.14-1.07,1.58-4.19,2.64-5.22,4.37-1.57,3.03,3.14,4.59,5.48,4.31,5.89-.12,8.11-9.13,13.31-7.1,5.09,2.61-1.39,7.08,2.34,8.21,13.4,1.59,26.23-5.27,39.18-7.87,5.15-.9,10.69-2.37,15.55-3.3,4.38-.4,8.98-1.36,13.41-1.56,14.84.2,33.77,7.17,45.45-5.63,13.58-16.7,1.05-30.89-2.25-47.68-.66-3.73-1.24-20.26,3.63-20.25,6.13.18,1.54,15.43,3.24,19.91,3.32,17.75,17.77,38.84-.68,54.23-4.61,4.14-11.23,5.7-16.35,7.1-3.1.67-6.67.26-9.91.36-6.99.2-12.96-1.31-19.92-1.36-6.74-.26-13.42.26-19.95,1.63-13.39,2.96-25.53,8.75-38.04,10.56-6.31,1.71-13.09,1.71-19.54-.03-1.09-.32-2.22-.64-3.32-.8-1.96-.29-3.89.37-5.86.42-3.39.21-6.43-.42-9.37-2.12-1.61-.93-3.2-2.08-5.05-2.31-2.31-.28-5.63.38-8.17-.6-3.78-1.27-5.88-4.94-9.33-6.76-3.19-1.92-6.41-2.8-8.61-5.31C.92,82.01-.07,78.26,0,75.35c.11-7.78,6.09-10.84,12.78-12.56,4.55-1.15,9.63-1.65,14-2.25,18.71-2.77,40.41-15.14,56.94-25.21,6.32-4.13,12.93-8.01,17.15-14.35,2.92-4.27,4.39-9.23,5.4-14.29.61-2.51,1.18-5.82,4.01-6.59l.14-.03Z" style="fill: #ad8193;"/>
        <path d="M208.95,86.61c-3.43,2.58-8.61-.32-12.61-1.18-2.96-.99-4.93-1.24-6.63-3.52-2.45-3.4.98-6.22,4.33-5.16,3.31.82,9.28,2.62,12.33,3.63,2.56.51,4.62,3.94,2.7,6.11l-.12.12Z" style="fill: #ad8193;"/>
        <path d="M205.29,52.79c1.08,1.16,1.15,3.67,0,4.92-2.49,2.78-8.92,7.12-12.59,7.9-3.16.3-4.67-4.07-2.66-6.29.78-1.04,2.75-2.09,4.46-3.23,3.46-2.07,6.76-5.02,10.68-3.39l.11.1Z" style="fill: #ad8193;"/>
        <path d="M180.54,89.94c1.37-.41,3.16-.25,4.25.78,1.96,1.84,5.64,7.21,7.05,9.85.69,1.29.9,2.82.23,4.2-1.21,2.51-4.71,2.04-6.36.23-.88-.87-1.48-1.85-2.16-2.9-1.42-2.46-6.63-10.34-3.14-12.11l.14-.05Z" style="fill: #ad8193;"/>
      </g>
    </g>
  </g>
</svg>