<?xml version="1.0" encoding="UTF-8"?>
<svg id="b" data-name="Ebene 2" xmlns="http://www.w3.org/2000/svg" viewBox="0 0 150.84 164.16">
  <g id="c" data-name="Ebene 1">
    <g>
      <path d="M24.41,89.11c1.03.32,2.17.14,3.22.15,1.33-1.31-5.01-15.12-9.03-12.4-2.16,1.46,4.23,11.76,5.81,12.25Z" style="fill: #a87e7d;"/>
      <path d="M18.63,109.5c-.48-.73-16.52-1.61-17.25-1.15-3.26,2.05-.07,3.88,2.63,4.14,4.11.4,9.24,0,13.5,0,.76,0,1.54-2.35,1.12-2.99Z" style="fill: #a87e7d;"/>
      <path d="M6.42,94.54c.52.42,10.03,5.42,10.69,5.6,1.01.27,4.94.69,5.28.35.26-.27-.04-2.33-.37-3-.54-1.09-11.6-6.58-13.3-7.01-3.9-1-4.86,2-2.29,4.06Z" style="fill: #a87e7d;"/>
      <path d="M118.98,75.24c-.88,2.3-4.49,5.27-1.78,7.34,5.98,4.56,9.45-10.59,9.5-14.66.05-3.87-1.35-16.44-7.08-14.53-.9.3-1.19.87-1.25,1.77-.22,3.08,2.53,9.03,2.29,13.47-.1,1.8-1.01,4.88-1.67,6.62Z" style="fill: #a87e7d;"/>
      <path d="M107.63,129.04c-3.58,1.05.31,4.18,2.29,5.02,2.39,1.01,13.63,4.78,14.46,1.27-.4-3.03-15.41-6.68-16.76-6.29Z" style="fill: #a87e7d;"/>
      <path d="M93.36,149.25c-1.04.31-1.71,1.94-1.61,3.03.06.66,3.15,10.24,3.46,10.71,1.56,2.34,4.25.79,4.37-1.38.11-2.05-2.94-13.34-6.22-12.36Z" style="fill: #a87e7d;"/>
      <path d="M99.64,140.21c-.2,1.39.01,2.21.71,3.41,1.15,1.97,12.43,11.23,14.29,9.33l-.16-3.59c-5.1-2.68-8.41-10.16-14.84-9.14Z" style="fill: #a87e7d;"/>
      <path d="M139.58,47.48c-5.6-16.32-.4-26.26.55-41.78.19-3.11.71-6.23-3.33-5.62-3.21.48-4.21,9.57-4.65,12.48-.31,2.12-.8,4.88-1.01,7.02-.1.98.09,2.01,0,3-.11,1.23.08,2.51,0,3.75-.25,3.63-1.86,7.87,0,11.24-.62,15.54,14.84,30.07,13.41,47.49-2.08,25.16-29.48,23.44-43.69,38.76-4.21,4.54-7.4,10.82-12.97,14.02-3.45,1.98-6.7,2.05-10,3.5-3.33,1.46-9.51,7.84-13.11,4.11-5.19-5.37,9.85-13.7,11.8-18.18,1.46-3.33-1.34-5.37-4.36-3.58-1.29.77-9.91,9.64-11.22,11.27-3.72,4.63-5.17,14.45-13.06,8.52-1.87-5.58,13.57-14.52,15.3-18.27,1.67-3.61-.24-7.53-4.48-4.48-4.71,3.4-13.35,12.46-16.26,17.46-1.66,2.86-.51,6.13-5.85,3.86-9.47-4.02,7.18-12.69,10.09-15.36,1.78-1.63,8.58-8.04,3.43-9.39-3.97-1.04-5.17,2.69-7.93,4.89-5.73,4.57-13.57,7.74-14.98,15.75-14.67-8.51,2.2-14.62,8.24-20.23,8.36-7.76,9.11-15.79,13.5-25.47,7.2-15.85,19.47-29.03,23.26-46.45,2.3-10.59,1.84-24.72.27-35.49-.4-2.77-.85-9.93-4.04-10.23-4.14-.4-3.53,2.51-3.34,5.62.59,9.81,2.95,19.08,2.27,29.26-1.18,17.71-9.82,27.05-17.69,41.52-5.03,9.25-11.21,28.46-17.56,34.91-6.18,6.27-17.33,8.95-17.34,20.2-.01,9.48,7.4,9.8,13.49,12.81,2.14,1.06,3.5,2.98,5.86,3.89,3.77,1.45,5.82-.5,9.43.32,2.15.48,3.09,2.53,6.14,2.86,4.13.45,7.11-1.92,10.44-1.51,6.16.76,5.61,5.5,14.45.87,4.1-2.15,5.51-3.09,9.98-5.02,12.09-5.22,11.79-8,19.88-16.86,14.13-15.49,39.09-13.44,45-36.71,4.78-18.83-4.4-28.65-9.93-44.77Z" style="fill: #a87e7d;"/>
    </g>
  </g>
</svg>