<?xml version="1.0" encoding="UTF-8"?>
<svg id="b" data-name="Ebene 2" xmlns="http://www.w3.org/2000/svg" viewBox="0 0 146.14 119.85">
  <g id="c" data-name="Ebene 1">
    <g>
      <path d="M42.12,112.43c-.23.25.24,4.95-2.77,5.85-2.04.61-9.98.31-12.64.18-4.51-.23-17.57-1.61-20.97-3.77-.88-.56-2.75-2.59-3.2-3.55-1.15-2.45-1.92-14.04-1.63-17.02.62-6.43-.22-5.96-.78-12.04-.75-8.09,1.97-23.01,5.61-30.34,2.97-5.99,8.06-5.16,13.1-1.83,2.6,1.72,3.1,4.29,4.89,6.35,8.11,9.31,23.93,7.06,32.59-.45,3.13-2.71,7.56-11.73,13-10.7,4.67.88,14.11,11.48,18.2,14.85,6.56,5.41,15.99,12.49,24.18,14.8,10.37,2.92,25.17-.59,31.32,11.42,19.4,37.88-57.1,35.24-76.18,31.9-3.34-.58-23.84-6.57-24.72-5.65ZM72.64,67.24c-2.34,1.93-4.82,1.08-4.15-2.22.49-2.41,6.8-7.77,6.57-9.06-.09-.49-4.28-4.64-4.99-4.85-5.75-1.69-7.09,5.37-9.44,7.89-.71.76-5.96,3.73-7.25,4.36-9.54,4.64-18.68,5.9-28.27.48-6.3-3.56-6.6-9.29-13.3-11.3-5.44,7.99-9.22,28.27-4.8,36.87,1.31,2.56,9.28,3.67,12.32,4.18,7.8,1.3,15.89,1.12,23.68,2.57s16.36,5.24,24.44,7.05c18.38,4.12,46.11,3.89,63.67-3.39,6.94-2.88,12.53-5.37,6.13-13.14-5.09-6.17-15.6-4.57-22.59-5.91-4.56-.87-10.42-3.48-14.55-5.69-2.11-1.13-10.59-7.42-11.26-7.53-2.41-.38-5.93,10.21-10.27,8.84-4.69-1.48,5.38-9.72,5.58-11.59.17-1.58-3.08-4.41-4.32-4.75-2.77-.75-5.41,5.71-7.19,7.17ZM6.11,95.2v11.61c0,1.33,1.91,3.62,3.21,4.28,2.75,1.4,27.3,3.86,28.28,2.83.9-.93-1.94-6.14,4.87-6.05,8.81.12,23,5.53,33.1,6.71,12.56,1.46,26.2,1.15,38.7-.86,8.31-1.34,21.83-3.52,25.34-12.15l-16.35,5.4c-16.39,4.08-36.87,4.6-53.44,1.36-10.48-2.05-20.85-6.79-31.3-8.44s-21.83-1.4-32.42-4.7Z" style="fill: #b18496;"/>
      <path d="M32.91.22c10.59-1.67,20.38,6.46,24.49,15.64,11,24.57-17.34,48.05-37.41,29.14C6.37,32.15,14.68,3.09,32.91.22ZM34.45,4.71c-16.9,1.97-23.71,32.45-5.09,40.66,14.2,6.26,26.97-6.59,25.5-20.99-.92-8.96-10.71-20.81-20.41-19.67Z" style="fill: #b18496;"/>
      <path d="M35.89,17.37c4.33-1.12,8.25,8.7,8.5,12.23,1.08,15.48-18.35,14.06-15.6-2.04.47-2.72,4.48-9.51,7.1-10.19ZM37.53,23.35c-2.21-1.43-4.32,4.37-4.46,6.29-.64,8.43,8.65,8.19,6.63-1.34-.11-.5-1.94-4.8-2.16-4.95Z" style="fill: #b18496;"/>
    </g>
  </g>
</svg>