<?xml version="1.0" encoding="UTF-8"?>
<svg id="b" data-name="Ebene 2" xmlns="http://www.w3.org/2000/svg" viewBox="0 0 130.12 103.14">
  <g id="c" data-name="Ebene 1">
    <g>
      <path d="M110.02,16c10.57-1.7,14.26,12.09,16.19,20.19,2.31,9.72,2.22,19.88,3.55,29.43.72,5.16.87,16.25-3.82,19.49-2.04,1.41-21.47,6.81-24.44,7.08-5.24.47-5.64-2.96-7.27-2.81-2.39.22-16.32,8.33-20.92,9.84-15.81,5.18-53.11,6.2-67.28-2.9-7.75-4.98-6.66-12.76-4.19-20.54,3.3-10.39,15.12-9.81,23.54-14.7,4.53-2.63,11.7-9.33,15.07-13.42,8.1-9.82,9.05-21.91,25.51-15.71,1.87.71,8.01,4.79,8.49,4.74,1.51-.14,8.71-3.53,10.5-4.52,7.36-4.09,17.06-14.88,25.08-16.16ZM113.95,21.07c-3.67-3.22-20.38,11.46-24.06,13.8-4.05,2.57-8.57,4.34-12.68,6.8,0,2.43,12.52,2.11,14.61,1.88,11.3-1.23,19.34-12.25,22.12-22.48ZM56.21,88.51c20.38-3.06,27.55-14.05,45.58-19.27,3.41-.99,20.34-3.72,21.06-5.94,1.47-4.55.7-12.25-.01-17.01-.97-6.5-2.74-13.31-5.5-19.22-4.24,6.71-8.68,14.72-16.1,18.38-8.06,3.97-16.02,2.12-24.62,2.76-4.1,5.27-8.04,12.25-12.53,17.07-1.31,1.4-2.62,3.29-4.88,2.99-.2-1.06-1.45-2.28-.39-3.72,2.25-2.69,14.68-17.87,14.61-19.89-.13-3.69-8.39-8.61-11.77-9.18-6.85-1.16-9.21,1.16-11.45,7.3,2.87.46,15.25,5.03,14.25,8.61-.27.96-1.46,1.16-2.45,1.02-4.68-.7-14.38-10.16-17.81-1.76,2.51.36,15.84,7.05,12.75,10.12-2.29,2.28-12.08-7.23-16.71-5.87-1.41.41-4.57,4.58-6.19,5.85-2.46,1.92-5.35,3.93-8.1,5.39-6.42,3.42-22.08,5.45-19.11,15.09.97,3.15,11.63,5.49,14.83,6.16,12.45,2.62,22.04,2.97,34.53,1.1ZM124.46,68.27c-11.51,3.12-22.87,4.64-33.5,10.36-4.95,2.67-9.24,6.47-14.34,8.9-16.68,7.96-40.23,7.63-58.05,3.73l-13.37-3.88c1.35,5.15,8.02,7.18,12.6,8.39,15.8,4.19,40.14,3.68,55.64-1.67,5.71-1.97,18.56-10.71,23.49-9.2,1.51.46,2.02,2.68,3.74,2.69s19.01-4.84,21.21-5.79c.68-.29,2.58-1.39,2.58-1.92v-11.61Z" style="fill: #b08496;"/>
      <path d="M81.5,25.76c1.56,1.75.62,4.1-1.7,4.32-3.62.35-27.13-16.83-32.84-19.63-4.05-1.99-24.59-10.46-21.17.17,1.49,4.63,20.71,13.63,21.32,15.44,1.07,3.16-.61,4.53-3.66,3.66-3.77-1.07-20.17-14.08-20.98-13.14-3.78,4.34,17.16,13.3,18.78,16.07s.56,4.56-2.63,4.18c-5.93-4.82-19.71-8.78-21.23-17.05C16.09,12.77,19.54,1.63,27.51.27c17.14-2.92,39.22,18.6,53.99,25.49Z" style="fill: #b08496;"/>
    </g>
  </g>
</svg>