<?xml version="1.0" encoding="UTF-8"?>
<svg id="b" data-name="Ebene 2" xmlns="http://www.w3.org/2000/svg" viewBox="0 0 100.22 138.07">
  <g id="c" data-name="Ebene 1">
    <g>
      <path d="M48.79,63.03c.43-.61-7.62-10.2-2.5-11.89,3.63-1.2,4.85,5.45,6.38,7.66,6.72,9.7,27.66,7.13,28.41-6.64.37-6.87-4.69-9.53-7.17-14.58-3.49-7.11-3.92-19.51-3.4-27.39.21-3.2.27-11.49,4.78-10.01,2.8.92,1.19,4.99,1.21,7.01.09,9.43-1.14,19.16,2.9,27.9,1.48,3.19,4.54,6,5.74,9.25,5.94,16.04-7.3,28.2-23.04,26.01-2.93-.41-8.24-3.55-9.2-3.53-2.57.07-5.59,5.31-12.68,4.41-11.78-1.49-11.08-15.52-7.57-23.92,4.76-11.39,7.24-12.64,6.37-26.59-.22-3.56-3.35-16.82-2.88-18.58.69-2.59,4.35-2.96,5.7.03,3,6.66,3.82,27.46,2.1,34.69s-12.45,20.05-6,26.9c3.12,3.32,7.58.96,10.83-.72Z" style="fill: #af8294;"/>
      <path d="M75.79,136.1c-.55,1.95-4.44,2.79-5.63.37-.62-1.26-1.19-13.78-1.15-16.14.08-5.75,1.12-15.72,2.82-21.16,1.97-6.29,7.96-9.54,6.92-16.22-1.26-8.11-12.36-1.25-17.02-.62-2.03.28-4.54.41-6.56.19-5.14-.56-14.19-7.57-17.05-.55-2.22,5.45,3.83,8.74,5.98,13.12,4.56,9.27,3.75,30.06,1.67,40.23-.49,2.39-2.94,3.7-4.86,1.92-2.07-1.93.31-12.77.42-16.09.19-5.93.48-14.44-.99-20.05-2.22-8.5-15.07-13.95-5.68-24.82,7.03-8.13,13.92-.34,21.23.29,8.1.69,10.57-3.08,16.61-3.73s13.46,6,13.02,12.23-5.95,9.19-7.84,13.95c-.59,1.48-1.88,6.58-1.88,7.86v29.22Z" style="fill: #b08395;"/>
      <path d="M87.9,137.11c-1.72-1.07-3.37-27.98-3.1-31.73.69-9.57,3.32-15.16,6.35-23.63,7.6-21.2,1.1-23.35-3.14-41.8-2.42-10.51.16-26.71,3.89-36.88.88-2.39,4.04-3.34,5.31-1.53,1.14,1.62-2.49,13.45-3.06,16.51-3.53,18.9.84,19.58,4.67,35.83,5.42,23.02-6.53,29.52-8.02,49.24-.33,4.41-.27,10.53,0,14.97.25,4.11,2.79,14.15,2.27,17.22-.37,2.22-3.89,2.58-5.18,1.79Z" style="fill: #af8294;"/>
      <path d="M2.08,51.16c2.53-.68,12.85,4.21,16.27,4.45,2.18,2.1,1.92,4.92-1.43,5.25-1.89.19-14.14-3.52-15.69-4.63-2.11-1.51-1.32-4.48.84-5.07Z" style="fill: #b08395;"/>
      <path d="M17.78,99.5c1.32-1.31,7-7.57,8.29-7.9,2.37-.62,5.14,2.57,2.48,5.55-1.09,1.22-10.32,9.79-11.04,9.99-2.19.63-4-1.14-3.95-3.28s3.03-3.17,4.22-4.36Z" style="fill: #b08395;"/>
      <path d="M.98,84.58c-.61-.59-1.03-1.96-.61-2.8,1.44-2.9,12.8-4.31,15.86-6.02,2.39-.25,4.27,2.43,2.97,4.53-.95,1.53-16.04,6.39-18.21,4.29Z" style="fill: #b08395;"/>
      <path d="M17.1,29.43c1.12-.15,1.26.1,2.1.59.66.39,10.18,9.9,10.51,10.57,1.15,2.33-1.96,4.7-4.9,3.34-.63-.29-9.4-9.02-9.8-9.69-1.39-2.33-.63-4.43,2.09-4.81Z" style="fill: #af8294;"/>
    </g>
  </g>
</svg>